<?xml version="1.0" standalone="no"?>
<!DOCTYPE svg PUBLIC "-//W3C//DTD SVG 20010904//EN"
 "http://www.w3.org/TR/2001/REC-SVG-20010904/DTD/svg10.dtd">
<svg version="1.0" xmlns="http://www.w3.org/2000/svg"
 width="464.000000pt" height="464.000000pt" viewBox="0 0 464.000000 464.000000"
 preserveAspectRatio="xMidYMid meet">
<metadata>
Created by potrace 1.11, written by Peter Selinger 2001-2013
</metadata>
<g transform="translate(0.000000,464.000000) scale(0.100000,-0.100000)"
fill="#000000" stroke="none">
<path d="M1697 4134 c-1 -1 -33 -4 -72 -8 -76 -6 -198 -34 -285 -64 -72 -25
-230 -103 -230 -114 0 -4 -5 -8 -11 -8 -29 0 -170 -120 -285 -244 -25 -28 -94
-126 -94 -136 0 -5 -3 -10 -7 -10 -5 0 -13 -10 -19 -23 -6 -12 -25 -49 -42
-83 -95 -184 -142 -448 -118 -672 4 -43 3 -44 -43 -73 -25 -15 -51 -33 -58
-39 -7 -5 -24 -15 -37 -22 -14 -6 -23 -15 -19 -21 3 -6 2 -7 -4 -4 -19 12
-248 -177 -237 -195 3 -5 1 -7 -4 -6 -12 4 -73 -72 -67 -82 3 -4 -2 -11 -11
-14 -9 -4 -14 -9 -11 -13 4 -3 3 -11 -2 -17 -16 -19 -32 -97 -32 -152 0 -60
27 -131 64 -168 24 -24 107 -71 107 -61 0 3 9 1 21 -5 13 -8 156 -12 437 -13
l417 -1 60 -33 c87 -49 207 -104 213 -99 2 3 11 -2 19 -10 11 -11 12 -21 6
-42 -12 -34 -14 -183 -3 -220 7 -25 4 -32 -26 -56 -19 -15 -34 -33 -34 -41 0
-11 -12 -15 -47 -15 -49 0 -108 -30 -118 -61 -3 -8 -21 -21 -40 -28 -19 -6
-43 -23 -54 -37 -22 -28 -61 -33 -124 -16 -52 14 -136 8 -199 -14 -37 -14 -70
-37 -115 -82 -35 -35 -61 -68 -58 -73 4 -5 2 -9 -3 -9 -18 0 -35 -87 -38 -189
-2 -86 0 -110 16 -141 18 -35 94 -111 109 -108 3 1 26 -8 51 -19 71 -31 181
-65 196 -59 8 3 14 2 14 -2 0 -4 33 -8 73 -10 79 -3 197 15 197 30 0 5 4 6 10
3 15 -9 424 186 415 198 -3 4 -2 5 1 2 9 -6 104 47 104 58 0 5 4 6 9 3 13 -8
134 111 126 124 -3 5 -2 10 4 10 17 0 47 121 33 135 -4 3 -7 20 -7 38 -3 93
-38 160 -134 252 l-44 43 0 93 c0 60 5 106 14 128 l15 34 89 2 c50 2 90 4 90
4 0 2 83 11 113 13 6 1 12 4 12 7 0 3 10 6 23 7 12 0 34 4 50 7 15 3 25 2 23
-2 -3 -4 2 -17 12 -27 23 -25 37 -58 83 -189 l38 -110 -23 -25 c-63 -67 -77
-85 -96 -125 -41 -84 -46 -218 -12 -285 51 -97 110 -139 389 -282 256 -130
340 -158 465 -154 51 2 104 5 118 8 114 22 272 91 313 137 36 41 58 109 48
152 -4 19 -5 43 -1 54 18 52 -27 186 -84 247 -85 90 -207 132 -311 107 -60
-15 -136 -18 -128 -6 8 13 -39 58 -54 53 -7 -3 -32 14 -55 39 -41 44 -79 60
-128 56 -19 -1 -29 6 -42 29 -10 17 -31 36 -48 41 -16 6 -31 15 -31 20 -1 5
-2 12 -4 17 -1 4 -5 25 -9 47 -18 93 -101 289 -117 279 -5 -3 -9 4 -9 15 0 11
-4 22 -10 26 -11 7 19 39 57 59 15 8 46 30 68 49 22 20 51 45 65 57 14 12 19
18 11 14 -9 -5 -12 -3 -7 5 4 6 11 9 15 6 10 -6 53 39 46 48 -3 4 -2 5 1 2 9
-6 62 55 117 138 44 66 125 220 131 250 2 6 8 25 14 40 7 16 12 32 12 37 0 10
87 64 184 113 l69 35 26 -25 c67 -64 162 -84 231 -48 38 19 99 82 100 102 0 9
26 11 98 8 53 -2 117 0 142 6 54 11 230 96 230 110 0 6 4 8 9 5 5 -3 25 1 44
9 19 8 48 17 65 20 17 3 44 10 59 17 15 6 31 11 35 10 21 -5 120 54 132 77 27
51 24 107 -8 154 l-25 36 22 7 c12 5 30 7 40 5 9 -1 17 3 17 8 0 6 4 10 9 9 6
-2 24 6 40 17 32 21 47 59 43 108 -1 17 3 27 12 27 7 0 25 11 39 24 14 13 28
22 31 19 2 -2 16 16 31 42 36 61 32 128 -12 162 -15 13 -36 23 -45 23 -14 0
-18 8 -18 33 0 44 -30 97 -71 125 -27 19 -42 23 -76 18 -48 -6 -156 -72 -146
-89 3 -6 1 -7 -5 -3 -6 3 -14 0 -19 -7 -4 -8 -45 -33 -90 -56 -45 -24 -93 -53
-107 -66 -14 -13 -26 -22 -26 -19 0 3 -9 0 -19 -6 -11 -5 -53 -12 -93 -15 -75
-6 -91 -8 -190 -24 -59 -10 -134 -39 -164 -63 -50 -41 -117 -114 -140 -154
-24 -41 -30 -45 -53 -38 -61 16 -138 -3 -188 -49 -34 -31 -73 -130 -73 -186 0
-20 -9 -31 -40 -48 -22 -12 -40 -21 -41 -20 0 1 -2 22 -5 47 -11 96 -36 218
-61 290 -30 90 -107 250 -134 279 -10 11 -19 24 -19 28 0 23 -144 183 -231
257 -90 76 -318 204 -339 191 -5 -3 -10 0 -12 5 -3 10 -145 53 -211 64 -83 14
-271 28 -280 20z"/>
<path d="M3195 1810 c-3 -5 -1 -10 4 -10 6 0 11 5 11 10 0 6 -2 10 -4 10 -3 0
-8 -4 -11 -10z"/>
</g>
</svg>
